<svg width="105" height="27" viewBox="0 0 105 27" fill="none" xmlns="http://www.w3.org/2000/svg">
<path d="M18.6788 12.6219C18.6966 12.6219 18.7055 12.6486 18.7055 12.7021C18.7055 12.7912 18.6565 12.9561 18.5584 13.1968C18.4604 13.4286 18.3178 13.7004 18.1306 14.0124C17.9434 14.3244 17.7116 14.6542 17.4353 15.0019C17.1679 15.3495 16.8604 15.6793 16.5127 15.9913C16.3345 16.0359 16.1072 16.0849 15.8308 16.1384C15.5545 16.1829 15.2381 16.2275 14.8815 16.2721C14.5339 16.3166 14.155 16.3657 13.745 16.4191C13.335 16.4637 12.9071 16.5083 12.4614 16.5528C11.9355 17.3818 11.423 18.2064 10.9238 19.0264C10.4336 19.8465 9.97004 20.6398 9.53326 21.4064C9.09649 22.1819 8.69091 22.9262 8.31653 23.6393C7.95107 24.3524 7.63463 25.0165 7.36722 25.6315C7.17112 25.7117 6.88142 25.792 6.49813 25.8722C6.11484 25.9613 5.71372 26.046 5.29477 26.1262C4.88474 26.2064 4.50145 26.2822 4.1449 26.3535C3.78835 26.4248 3.53876 26.4828 3.39614 26.5273C4.23403 24.7357 5.07639 23.0465 5.92319 21.4599C6.77891 19.8821 7.65246 18.3623 8.54384 16.9005C8.08032 16.9361 7.64355 16.9718 7.23351 17.0075C6.82348 17.0342 6.46247 17.0565 6.15049 17.0743C5.83851 17.0921 5.58447 17.11 5.38837 17.1278C5.19226 17.1367 5.07639 17.1412 5.04073 17.1412C4.98725 17.1412 4.96051 17.1055 4.96051 17.0342C4.96051 16.9361 5.00507 16.7935 5.09421 16.6063C5.18335 16.4191 5.28586 16.232 5.40174 16.0448C5.52653 15.8487 5.65132 15.6793 5.77611 15.5367C5.90982 15.3851 6.01233 15.3005 6.08364 15.2826C6.77891 15.2202 7.43407 15.1534 8.04912 15.0821C8.67309 15.0108 9.26585 14.935 9.82742 14.8548C11.2804 12.5996 12.769 10.4826 14.2932 8.50373C15.8175 6.52487 17.364 4.59504 18.9328 2.71424C18.9685 2.67858 18.9863 2.60282 18.9863 2.48694C18.9863 2.43346 18.9685 2.37997 18.9328 2.32649C18.9061 2.27301 18.8392 2.26409 18.7323 2.29975C16.8336 2.81675 15.1177 3.39169 13.5846 4.02456C12.0514 4.65744 10.6876 5.29923 9.49315 5.94993C8.29871 6.59172 7.26471 7.22014 6.39116 7.83519C5.52653 8.45024 4.81343 9.00735 4.25186 9.50652C3.6903 9.99678 3.27581 10.4024 3.00839 10.7233C2.74098 11.0441 2.60727 11.2313 2.60727 11.2848C2.60727 11.3116 2.61619 11.3517 2.63402 11.4052C2.66076 11.4497 2.74098 11.472 2.87469 11.472C3.15993 11.472 3.46299 11.4319 3.78389 11.3517C4.1137 11.2714 4.43905 11.1689 4.75995 11.0441C5.08976 10.9194 5.40619 10.7856 5.70926 10.643C6.01233 10.4915 6.29311 10.3489 6.55161 10.2152C6.56053 10.4202 6.56944 10.6609 6.57835 10.9372C6.59618 11.2046 6.60955 11.4765 6.61846 11.7528C6.63629 12.0291 6.64966 12.2965 6.65858 12.555C6.6764 12.8046 6.68532 13.0096 6.68532 13.1701C6.57835 13.2236 6.40453 13.2815 6.16386 13.3439C5.92319 13.3974 5.62904 13.4509 5.2814 13.5043C4.94268 13.5489 4.55493 13.589 4.11816 13.6247C3.6903 13.6514 3.23124 13.6648 2.74098 13.6648C2.6875 13.6648 2.64293 13.6603 2.60727 13.6514C2.58053 13.6425 2.55379 13.6381 2.52705 13.6381C2.44683 13.6291 2.32649 13.5578 2.16604 13.4241C2.01451 13.2904 1.84515 13.1211 1.65796 12.916C1.47077 12.711 1.27912 12.4882 1.08302 12.2475C0.886919 11.9979 0.708644 11.7617 0.548196 11.5389C0.387748 11.3071 0.254042 11.0976 0.147077 10.9104C0.0490257 10.7143 0 10.5717 0 10.4826C0 9.93884 0.20056 9.37727 0.601679 8.79788C1.01171 8.20957 1.55991 7.62572 2.24627 7.04633C2.94154 6.46693 3.74378 5.89645 4.65298 5.33488C5.56218 4.77332 6.52041 4.24295 7.52767 3.74378C8.53492 3.24461 9.56001 2.78555 10.6029 2.3666C11.6458 1.93874 12.6442 1.57328 13.5979 1.27021C14.5517 0.967143 15.4297 0.730928 16.232 0.561567C17.0431 0.383292 17.7116 0.294154 18.2375 0.294154C18.3891 0.294154 18.5629 0.352093 18.759 0.467972C18.964 0.583851 19.1646 0.735385 19.3607 0.922574C19.5657 1.10976 19.7663 1.31924 19.9624 1.55099C20.1585 1.78275 20.3323 2.01451 20.4838 2.24627C20.6443 2.47802 20.7735 2.70087 20.8716 2.9148C20.9696 3.11982 21.0231 3.28918 21.032 3.42288C21.032 3.47637 20.9384 3.65464 20.7512 3.95771C20.573 4.25186 20.3234 4.64407 20.0025 5.13432C19.6816 5.61567 19.3027 6.18615 18.866 6.84577C18.4292 7.49647 17.9523 8.20957 17.4353 8.98507C16.9183 9.75165 16.3701 10.5673 15.7907 11.4319C15.2202 12.2876 14.6408 13.1701 14.0525 14.0793C14.8548 13.8921 15.5411 13.7138 16.1116 13.5445C16.6821 13.3662 17.1545 13.2102 17.5289 13.0765C17.9033 12.9428 18.1841 12.8358 18.3713 12.7556C18.5584 12.6664 18.661 12.6219 18.6788 12.6219Z" fill="#111212"/>
<path d="M17.3685 21.9813C17.832 21.188 18.3222 20.2877 18.8392 19.2805C19.3562 18.2643 19.8821 17.1768 20.417 16.018C20.9518 14.8503 21.4866 13.6202 22.0214 12.3277C22.5563 11.0352 23.0733 9.71154 23.5724 8.35665C24.0716 6.99284 24.544 5.60675 24.9897 4.19838C25.4354 2.79001 25.8365 1.39055 26.1931 0C26.4516 0.249585 26.719 0.49917 26.9953 0.748756C27.2806 0.989427 27.5569 1.2301 27.8243 1.47077C28.0917 1.70253 28.3413 1.93429 28.573 2.16604C28.8137 2.38889 29.0143 2.59836 29.1747 2.79446C28.8449 3.75715 28.4616 4.77332 28.0249 5.84297C27.5881 6.90371 27.1246 7.98673 26.6343 9.09203C26.1441 10.1884 25.636 11.2804 25.1101 12.3678C24.5931 13.4553 24.0805 14.4982 23.5724 15.4966C23.0733 16.4949 22.5964 17.4309 22.1418 18.3044C21.6872 19.169 21.2816 19.9312 20.925 20.5908C21.4599 20.5908 22.0927 20.5952 22.8237 20.6042C23.5546 20.6042 24.3479 20.6086 25.2036 20.6175C26.0594 20.6264 26.9597 20.6398 27.9045 20.6576C28.8494 20.6755 29.8031 20.6977 30.7658 20.7245C30.6232 20.9206 30.4583 21.1345 30.2711 21.3663C30.0839 21.598 29.8834 21.8343 29.6694 22.0749C29.4644 22.3245 29.2505 22.5652 29.0277 22.7969C28.8137 23.0376 28.5998 23.2605 28.3859 23.4655C27.5836 23.4209 26.8081 23.363 26.0594 23.2917C25.3195 23.2203 24.602 23.1357 23.9067 23.0376C23.2114 22.9485 22.5295 22.8549 21.861 22.7568C21.2014 22.6588 20.5462 22.5607 19.8955 22.4627C19.7975 22.6409 19.7172 22.7702 19.6548 22.8504C19.6014 22.9306 19.5791 22.9618 19.588 22.944L17.3685 21.9813Z" fill="#111212"/>
<path d="M34.2689 19.7752C34.2689 20.0426 34.367 20.1763 34.5631 20.1763C34.7681 20.1763 35.04 20.0158 35.3787 19.6949C35.7174 19.3651 36.0695 18.9506 36.435 18.4515C36.4172 18.3534 36.4038 18.2687 36.3949 18.1974C36.3949 18.1172 36.3949 18.0459 36.3949 17.9835C36.3949 17.8052 36.4127 17.5958 36.4484 17.3551C36.4929 17.1055 36.5954 16.8247 36.7559 16.5127C36.8628 16.2721 36.9921 16.0359 37.1436 15.8041C37.2684 15.5991 37.42 15.3807 37.5982 15.1489C37.7765 14.9083 37.9726 14.6854 38.1865 14.4804L38.2668 14.4002C38.3559 14.5071 38.4718 14.6542 38.6144 14.8414C38.7659 15.0197 38.913 15.2069 39.0556 15.403C39.2072 15.5902 39.3364 15.764 39.4434 15.9244C39.5593 16.0849 39.6306 16.1963 39.6573 16.2587C39.6573 16.642 39.586 17.0253 39.4434 17.4086C39.3097 17.7919 39.1269 18.1707 38.8952 18.5451C39.43 18.5094 39.9247 18.3757 40.3793 18.144C40.8428 17.9033 41.3242 17.5155 41.8233 16.9807C41.9036 17.0609 42.0061 17.1724 42.1309 17.315C42.2646 17.4487 42.3715 17.5646 42.4518 17.6626C42.0774 18.0548 41.7075 18.3802 41.342 18.6387C40.9855 18.8972 40.6245 19.1022 40.259 19.2537C39.9024 19.4053 39.537 19.5167 39.1626 19.588C38.7882 19.6504 38.4049 19.6816 38.0127 19.6816C37.7097 20.0025 37.3843 20.2966 37.0367 20.564C36.689 20.8315 36.3325 21.0632 35.967 21.2593C35.6105 21.4554 35.2539 21.6069 34.8974 21.7139C34.5408 21.8209 34.2021 21.8744 33.8812 21.8744C33.6138 21.8744 33.3375 21.7941 33.0522 21.6337C32.767 21.4732 32.5085 21.2771 32.2767 21.0454C32.045 20.8047 31.8533 20.5507 31.7018 20.2833C31.5502 20.0158 31.4745 19.7796 31.4745 19.5746C31.4745 18.8972 31.5681 18.2242 31.7553 17.5556C31.9335 16.8871 32.2188 16.2632 32.611 15.6838C32.9943 15.0954 33.4845 14.5785 34.0817 14.1328C34.6879 13.6871 35.4054 13.3484 36.2344 13.1166C36.2612 13.0988 36.3057 13.0854 36.3681 13.0765C36.4394 13.0676 36.4974 13.0631 36.5419 13.0631C36.6667 13.0631 36.796 13.1121 36.9297 13.2102C37.0723 13.2993 37.2016 13.4018 37.3174 13.5177C37.4422 13.6336 37.5447 13.7495 37.625 13.8654C37.7052 13.9723 37.7453 14.0436 37.7453 14.0793C37.7275 14.1238 37.6606 14.1818 37.5447 14.2531C37.4289 14.3155 37.2729 14.4269 37.0768 14.5874C36.8807 14.7478 36.6489 14.9796 36.3815 15.2826C36.1141 15.5768 35.8199 15.969 35.499 16.4593C35.0177 17.1813 34.6923 17.8364 34.523 18.4247C34.3536 19.0041 34.2689 19.4543 34.2689 19.7752Z" fill="#111212"/>
<path d="M48.1209 21.8744C47.9961 21.8744 47.8268 21.8298 47.6128 21.7407C47.4078 21.6515 47.1939 21.5312 46.971 21.3796C46.7571 21.237 46.5521 21.0721 46.356 20.8849C46.1599 20.6888 46.0217 20.4838 45.9415 20.2699C45.478 20.7067 45.0145 21.0766 44.551 21.3796C44.0874 21.6827 43.6551 21.8476 43.254 21.8744C43.1203 21.8744 42.9242 21.8164 42.6657 21.7005C42.4161 21.5847 42.171 21.4331 41.9303 21.2459C41.6807 21.0677 41.4668 20.8627 41.2885 20.6309C41.1013 20.3902 41.0077 20.1495 41.0077 19.9089C41.0077 19.3206 41.0746 18.7189 41.2083 18.1038C41.3331 17.4799 41.4935 16.8604 41.6896 16.2453C41.8768 15.6303 42.0818 15.0331 42.3047 14.4537C42.5275 13.8654 42.7326 13.3082 42.9197 12.7823C43.3743 12.9873 43.82 13.2191 44.2568 13.4776C44.6936 13.7272 45.0992 14.0169 45.4735 14.3467C45.3398 14.6141 45.2017 14.9305 45.059 15.296C44.9164 15.6615 44.7783 16.0403 44.6446 16.4325C44.5108 16.8247 44.3816 17.2214 44.2568 17.6225C44.1409 18.0236 44.0384 18.3935 43.9493 18.7323C43.8601 19.071 43.7888 19.3696 43.7354 19.6281C43.6819 19.8866 43.6551 20.0693 43.6551 20.1763C43.6551 20.2476 43.6685 20.3145 43.6952 20.3769C43.7309 20.4303 43.7844 20.4571 43.8557 20.4571C43.9894 20.4571 44.1365 20.408 44.2969 20.31C44.4663 20.2119 44.6401 20.0827 44.8184 19.9222C45.0056 19.7618 45.1928 19.5791 45.3799 19.3741C45.576 19.1601 45.7677 18.9373 45.9549 18.7055C46.0173 18.2331 46.1109 17.7651 46.2357 17.3016C46.3605 16.8381 46.4986 16.379 46.6502 15.9244C46.8017 15.4698 46.9621 15.0241 47.1315 14.5874C47.3009 14.1417 47.4658 13.7049 47.6262 13.277C48.0808 13.4821 48.5265 13.7138 48.9633 13.9723C49.4 14.2219 49.8056 14.5116 50.18 14.8414C50.0463 15.1088 49.9126 15.4119 49.7789 15.7506C49.6452 16.0893 49.5159 16.4414 49.3911 16.8069C49.2752 17.1634 49.1638 17.52 49.0569 17.8765C48.9499 18.2242 48.8563 18.554 48.7761 18.866C48.7048 19.169 48.6468 19.4364 48.6023 19.6682C48.5577 19.9 48.5354 20.0693 48.5354 20.1763C48.5354 20.2476 48.5488 20.3145 48.5755 20.3769C48.6023 20.4303 48.6513 20.4571 48.7226 20.4571C48.8652 20.4571 49.0301 20.408 49.2173 20.31C49.4045 20.203 49.5961 20.0649 49.7922 19.8955C49.9973 19.7172 50.2023 19.5122 50.4073 19.2805C50.6123 19.0487 50.8129 18.808 51.009 18.5584C50.9288 18.2821 50.8886 17.9657 50.8886 17.6091C50.8886 17.3239 50.9377 16.9807 51.0357 16.5796C51.1338 16.1696 51.2586 15.764 51.4101 15.3629C51.5616 14.9617 51.7265 14.5918 51.9048 14.2531C52.092 13.9055 52.2658 13.647 52.4263 13.4776C52.6313 13.5489 52.8408 13.6559 53.0547 13.7985C53.2775 13.9322 53.4825 14.0793 53.6697 14.2397C53.8569 14.3913 54.0085 14.5428 54.1243 14.6943C54.2491 14.8459 54.3204 14.9662 54.3383 15.0553C54.3383 15.2514 54.2892 15.4877 54.1912 15.764C54.0931 16.0403 53.955 16.3389 53.7767 16.6598C53.6073 16.9807 53.4023 17.315 53.1617 17.6626C52.9299 18.0102 52.6759 18.3579 52.3995 18.7055C52.56 18.9016 52.8318 18.9997 53.2151 18.9997C53.6608 18.9997 54.1065 18.8437 54.5522 18.5317C54.9979 18.2108 55.5104 17.7829 56.0898 17.2481C56.179 17.3283 56.2859 17.4353 56.4107 17.569C56.5355 17.6938 56.638 17.8052 56.7182 17.9033C55.9695 18.6431 55.2965 19.1824 54.6993 19.5211C54.111 19.8509 53.536 20.0158 52.9745 20.0158C52.4396 20.0158 51.9984 19.8688 51.6508 19.5746C51.3566 19.8866 51.0535 20.1807 50.7416 20.4571C50.4385 20.7245 50.1354 20.9607 49.8324 21.1657C49.5293 21.3707 49.2307 21.5356 48.9365 21.6604C48.6513 21.7852 48.3794 21.8565 48.1209 21.8744Z" fill="#111212"/>
<path d="M65.3824 17.8498C64.5623 18.652 63.7868 19.325 63.0559 19.8688C62.3339 20.4125 61.6431 20.8493 60.9835 21.1791C60.3239 21.5089 59.691 21.7451 59.0848 21.8877C58.4876 22.0304 57.9038 22.1017 57.3333 22.1017C57.0926 22.1017 56.8252 22.0125 56.5311 21.8343C56.2369 21.656 55.965 21.4376 55.7154 21.1791C55.4569 20.9295 55.243 20.6665 55.0737 20.3902C54.9043 20.1139 54.8196 19.8777 54.8196 19.6816C54.8196 18.9506 54.9221 18.2821 55.1271 17.676C55.3232 17.0609 55.5862 16.5083 55.916 16.018C56.2458 15.5278 56.6202 15.0954 57.0391 14.7211C57.467 14.3467 57.9082 14.0347 58.3628 13.7851C58.8263 13.5355 59.2854 13.3484 59.74 13.2236C60.1946 13.0988 60.6136 13.0364 60.9968 13.0364C61.2732 13.0364 61.545 13.1166 61.8125 13.277C62.0888 13.4375 62.3384 13.6336 62.5612 13.8654C62.784 14.0971 62.9623 14.3422 63.096 14.6007C63.2387 14.8503 63.31 15.0687 63.31 15.2559C63.31 15.559 63.1807 15.8709 62.9222 16.1918C62.6726 16.5038 62.3161 16.8247 61.8526 17.1545C61.389 17.4843 60.8319 17.8231 60.1812 18.1707C59.5305 18.5094 58.813 18.8526 58.0286 19.2002C58.0018 19.4142 57.9884 19.6236 57.9884 19.8287C57.9884 20.105 58.0464 20.2922 58.1623 20.3902C58.2871 20.4883 58.5144 20.5373 58.8442 20.5373C59.4325 20.5373 59.9851 20.4392 60.5021 20.2431C61.028 20.047 61.5317 19.793 62.013 19.481C62.4944 19.169 62.9579 18.8125 63.4036 18.4114C63.8492 18.0102 64.2905 17.6047 64.7272 17.1946L65.3824 17.8498ZM60.6759 14.5071C60.4977 14.5071 60.3016 14.6052 60.0876 14.8013C59.8737 14.9885 59.6598 15.2381 59.4459 15.5501C59.2319 15.862 59.0269 16.223 58.8308 16.6331C58.6347 17.0342 58.4653 17.4531 58.3227 17.8899C58.6525 17.676 58.9734 17.4487 59.2854 17.208C59.6063 16.9673 59.8915 16.7178 60.1411 16.4593C60.3907 16.1918 60.5913 15.92 60.7428 15.6436C60.8943 15.3673 60.9701 15.091 60.9701 14.8147C60.9701 14.7344 60.9434 14.6631 60.8899 14.6007C60.8453 14.5383 60.774 14.5071 60.6759 14.5071Z" fill="#111212"/>
<path d="M67.5618 20.203C67.7044 20.203 67.8961 20.1406 68.1368 20.0158C68.3863 19.8911 68.6582 19.7351 68.9524 19.5479C69.2465 19.3518 69.5541 19.1378 69.8749 18.9061C70.1958 18.6743 70.4945 18.447 70.7708 18.2242C71.056 18.0013 71.3101 17.7963 71.5329 17.6091C71.7558 17.4219 71.9207 17.2838 72.0276 17.1946C72.1078 17.2749 72.2014 17.3774 72.3084 17.5022C72.4243 17.627 72.5312 17.7428 72.6293 17.8498C72.4332 18.0459 72.1881 18.2866 71.8939 18.5718C71.5998 18.8481 71.2789 19.1334 70.9312 19.4275C70.5925 19.7217 70.236 20.0158 69.8616 20.31C69.4961 20.6042 69.1351 20.8671 68.7785 21.0989C68.4309 21.3306 68.1056 21.5178 67.8025 21.6604C67.4994 21.8031 67.2454 21.8744 67.0404 21.8744C66.764 21.8744 66.4699 21.7763 66.1579 21.5802C65.8548 21.3841 65.5696 21.1568 65.3022 20.8983C65.0348 20.6309 64.8075 20.3635 64.6203 20.0961C64.4331 19.8287 64.3261 19.6281 64.2994 19.4944C64.2816 19.4409 64.2726 19.3785 64.2726 19.3072C64.2726 19.227 64.2726 19.1423 64.2726 19.0532C64.2726 18.6075 64.3306 18.0459 64.4465 17.3685C64.5534 16.6821 64.7005 15.9601 64.8877 15.2024C65.0749 14.4358 65.2888 13.6782 65.5295 12.9294C65.7791 12.1717 66.0376 11.5032 66.305 10.9238C66.8487 9.73828 67.4058 8.68646 67.9763 7.76834C68.5557 6.85022 69.1217 6.05244 69.6744 5.375C70.227 4.68864 70.7574 4.1137 71.2655 3.65018C71.7736 3.18667 72.2282 2.81229 72.6293 2.52705C73.0393 2.24181 73.3825 2.03679 73.6588 1.912C73.9441 1.78721 74.1402 1.72481 74.2471 1.72481C74.4165 1.78721 74.5859 1.8808 74.7552 2.0056C74.9335 2.12147 75.0984 2.24627 75.2499 2.37997C75.4015 2.51368 75.5352 2.64739 75.6511 2.78109C75.7669 2.90589 75.8516 2.99948 75.9051 3.06188C75.9764 3.13319 76.021 3.2045 76.0388 3.27581C76.0655 3.3382 76.0789 3.42288 76.0789 3.52985C76.0789 3.74378 76.0254 4.03793 75.9185 4.41231C75.8115 4.78669 75.611 5.26357 75.3168 5.84297C75.0226 6.41345 74.6126 7.09981 74.0867 7.90205C73.5697 8.70428 72.8923 9.64023 72.0544 10.7099C71.6622 11.2091 71.2477 11.7171 70.8109 12.2341C70.4365 12.6798 70.0042 13.1656 69.5139 13.6915C69.0237 14.2174 68.5201 14.7211 68.0031 15.2024C67.7446 16.1829 67.5618 17.0476 67.4549 17.7963C67.3568 18.5451 67.3078 19.1289 67.3078 19.5479C67.3078 19.8242 67.3301 20.0025 67.3746 20.0827C67.4192 20.1629 67.4816 20.203 67.5618 20.203ZM69.7011 10.4024C69.5496 10.7411 69.407 11.0709 69.2733 11.3918C69.1485 11.7127 69.0281 12.0291 68.9123 12.3411C69.1886 12.0291 69.4382 11.7305 69.661 11.4453C69.8928 11.16 70.0889 10.9149 70.2493 10.7099C70.4365 10.4692 70.6059 10.2419 70.7574 10.028C71.3814 9.15443 71.9207 8.35219 72.3753 7.62126C72.8299 6.89034 73.2042 6.24854 73.4984 5.69589C73.7925 5.13432 74.0065 4.67081 74.1402 4.30535C74.2828 3.93097 74.3541 3.66355 74.3541 3.50311C74.3541 3.45854 74.3497 3.42734 74.3407 3.40951C74.3407 3.38277 74.3185 3.3694 74.2739 3.3694C74.1937 3.3694 74.0109 3.50311 73.7257 3.77052C73.4404 4.02902 73.0884 4.44351 72.6694 5.01399C72.2594 5.58447 71.7959 6.3154 71.2789 7.20677C70.7708 8.08924 70.2449 9.15443 69.7011 10.4024Z" fill="#111212"/>
<path d="M73.6321 19.7752C73.6321 20.0426 73.7301 20.1763 73.9262 20.1763C74.1313 20.1763 74.4031 20.0158 74.7419 19.6949C75.0806 19.3651 75.4327 18.9506 75.7981 18.4515C75.7803 18.3534 75.7669 18.2687 75.758 18.1974C75.758 18.1172 75.758 18.0459 75.758 17.9835C75.758 17.8052 75.7759 17.5958 75.8115 17.3551C75.8561 17.1055 75.9586 16.8247 76.119 16.5127C76.226 16.2721 76.3553 16.0359 76.5068 15.8041C76.6316 15.5991 76.7831 15.3807 76.9614 15.1489C77.1397 14.9083 77.3358 14.6854 77.5497 14.4804L77.6299 14.4002C77.7191 14.5071 77.8349 14.6542 77.9775 14.8414C78.1291 15.0197 78.2762 15.2069 78.4188 15.403C78.5703 15.5902 78.6996 15.764 78.8065 15.9244C78.9224 16.0849 78.9937 16.1963 79.0205 16.2587C79.0205 16.642 78.9492 17.0253 78.8065 17.4086C78.6728 17.7919 78.4901 18.1707 78.2583 18.5451C78.7932 18.5094 79.2879 18.3757 79.7425 18.144C80.206 17.9033 80.6873 17.5155 81.1865 16.9807C81.2667 17.0609 81.3692 17.1724 81.494 17.315C81.6277 17.4487 81.7347 17.5646 81.8149 17.6626C81.4405 18.0548 81.0706 18.3802 80.7052 18.6387C80.3486 18.8972 79.9876 19.1022 79.6221 19.2537C79.2656 19.4053 78.9001 19.5167 78.5257 19.588C78.1514 19.6504 77.7681 19.6816 77.3759 19.6816C77.0728 20.0025 76.7475 20.2966 76.3998 20.564C76.0522 20.8315 75.6956 21.0632 75.3302 21.2593C74.9736 21.4554 74.6171 21.6069 74.2605 21.7139C73.904 21.8209 73.5652 21.8744 73.2443 21.8744C72.9769 21.8744 72.7006 21.7941 72.4154 21.6337C72.1301 21.4732 71.8716 21.2771 71.6399 21.0454C71.4081 20.8047 71.2165 20.5507 71.0649 20.2833C70.9134 20.0158 70.8376 19.7796 70.8376 19.5746C70.8376 18.8972 70.9312 18.2242 71.1184 17.5556C71.2967 16.8871 71.5819 16.2632 71.9741 15.6838C72.3574 15.0954 72.8477 14.5785 73.4449 14.1328C74.051 13.6871 74.7686 13.3484 75.5976 13.1166C75.6243 13.0988 75.6689 13.0854 75.7313 13.0765C75.8026 13.0676 75.8605 13.0631 75.9051 13.0631C76.0299 13.0631 76.1591 13.1121 76.2928 13.2102C76.4355 13.2993 76.5647 13.4018 76.6806 13.5177C76.8054 13.6336 76.9079 13.7495 76.9881 13.8654C77.0683 13.9723 77.1085 14.0436 77.1085 14.0793C77.0906 14.1238 77.0238 14.1818 76.9079 14.2531C76.792 14.3155 76.636 14.4269 76.4399 14.5874C76.2438 14.7478 76.0121 14.9796 75.7447 15.2826C75.4772 15.5768 75.1831 15.969 74.8622 16.4593C74.3809 17.1813 74.0555 17.8364 73.8861 18.4247C73.7168 19.0041 73.6321 19.4543 73.6321 19.7752Z" fill="#111212"/>
<path d="M87.4841 21.8744C87.3593 21.8744 87.1899 21.8298 86.976 21.7407C86.771 21.6515 86.557 21.5312 86.3342 21.3796C86.1203 21.237 85.9153 21.0721 85.7191 20.8849C85.523 20.6888 85.3849 20.4838 85.3047 20.2699C84.8411 20.7067 84.3776 21.0766 83.9141 21.3796C83.4506 21.6827 83.0183 21.8476 82.6172 21.8744C82.4835 21.8744 82.2874 21.8164 82.0289 21.7005C81.7793 21.5847 81.5341 21.4331 81.2935 21.2459C81.0439 21.0677 80.83 20.8627 80.6517 20.6309C80.4645 20.3902 80.3709 20.1495 80.3709 19.9089C80.3709 19.3206 80.4377 18.7189 80.5714 18.1038C80.6962 17.4799 80.8567 16.8604 81.0528 16.2453C81.24 15.6303 81.445 15.0331 81.6678 14.4537C81.8907 13.8654 82.0957 13.3082 82.2829 12.7823C82.7375 12.9873 83.1832 13.2191 83.62 13.4776C84.0567 13.7272 84.4623 14.0169 84.8367 14.3467C84.703 14.6141 84.5648 14.9305 84.4222 15.296C84.2796 15.6615 84.1414 16.0403 84.0077 16.4325C83.874 16.8247 83.7448 17.2214 83.62 17.6225C83.5041 18.0236 83.4016 18.3935 83.3124 18.7323C83.2233 19.071 83.152 19.3696 83.0985 19.6281C83.045 19.8866 83.0183 20.0693 83.0183 20.1763C83.0183 20.2476 83.0316 20.3145 83.0584 20.3769C83.094 20.4303 83.1475 20.4571 83.2188 20.4571C83.3526 20.4571 83.4996 20.408 83.6601 20.31C83.8294 20.2119 84.0033 20.0827 84.1815 19.9222C84.3687 19.7618 84.5559 19.5791 84.7431 19.3741C84.9392 19.1601 85.1308 18.9373 85.318 18.7055C85.3804 18.2331 85.474 17.7651 85.5988 17.3016C85.7236 16.8381 85.8618 16.379 86.0133 15.9244C86.1648 15.4698 86.3253 15.0241 86.4946 14.5874C86.664 14.1417 86.8289 13.7049 86.9894 13.277C87.444 13.4821 87.8896 13.7138 88.3264 13.9723C88.7632 14.2219 89.1688 14.5116 89.5432 14.8414C89.4094 15.1088 89.2757 15.4119 89.142 15.7506C89.0083 16.0893 88.8791 16.4414 88.7543 16.8069C88.6384 17.1634 88.527 17.52 88.42 17.8765C88.313 18.2242 88.2195 18.554 88.1392 18.866C88.0679 19.169 88.01 19.4364 87.9654 19.6682C87.9209 19.9 87.8986 20.0693 87.8986 20.1763C87.8986 20.2476 87.9119 20.3145 87.9387 20.3769C87.9654 20.4303 88.0145 20.4571 88.0858 20.4571C88.2284 20.4571 88.3933 20.408 88.5805 20.31C88.7677 20.203 88.9593 20.0649 89.1554 19.8955C89.3604 19.7172 89.5654 19.5122 89.7705 19.2805C89.9755 19.0487 90.176 18.808 90.3721 18.5584C90.2919 18.2821 90.2518 17.9657 90.2518 17.6091C90.2518 17.3239 90.3008 16.9807 90.3989 16.5796C90.4969 16.1696 90.6217 15.764 90.7732 15.3629C90.9248 14.9617 91.0897 14.5918 91.268 14.2531C91.4552 13.9055 91.629 13.647 91.7894 13.4776C91.9944 13.5489 92.2039 13.6559 92.4178 13.7985C92.6407 13.9322 92.8457 14.0793 93.0329 14.2397C93.2201 14.3913 93.3716 14.5428 93.4875 14.6943C93.6123 14.8459 93.6836 14.9662 93.7014 15.0553C93.7014 15.2514 93.6524 15.4877 93.5543 15.764C93.4563 16.0403 93.3181 16.3389 93.1399 16.6598C92.9705 16.9807 92.7655 17.315 92.5248 17.6626C92.293 18.0102 92.039 18.3579 91.7627 18.7055C91.9231 18.9016 92.195 18.9997 92.5783 18.9997C93.024 18.9997 93.4697 18.8437 93.9154 18.5317C94.361 18.2108 94.8736 17.7829 95.453 17.2481C95.5421 17.3283 95.6491 17.4353 95.7739 17.569C95.8987 17.6938 96.0012 17.8052 96.0814 17.9033C95.3326 18.6431 94.6596 19.1824 94.0624 19.5211C93.4741 19.8509 92.8992 20.0158 92.3376 20.0158C91.8028 20.0158 91.3616 19.8688 91.0139 19.5746C90.7198 19.8866 90.4167 20.1807 90.1047 20.4571C89.8017 20.7245 89.4986 20.9607 89.1955 21.1657C88.8924 21.3707 88.5938 21.5356 88.2997 21.6604C88.0144 21.7852 87.7426 21.8565 87.4841 21.8744Z" fill="#111212"/>
<path d="M104.746 17.8498C103.926 18.652 103.15 19.325 102.419 19.8688C101.697 20.4125 101.006 20.8493 100.347 21.1791C99.687 21.5089 99.0541 21.7451 98.448 21.8877C97.8508 22.0304 97.2669 22.1017 96.6964 22.1017C96.4558 22.1017 96.1884 22.0125 95.8942 21.8343C95.6001 21.656 95.3282 21.4376 95.0786 21.1791C94.8201 20.9295 94.6062 20.6665 94.4368 20.3902C94.2674 20.1139 94.1828 19.8777 94.1828 19.6816C94.1828 18.9506 94.2853 18.2821 94.4903 17.676C94.6864 17.0609 94.9493 16.5083 95.2792 16.018C95.609 15.5278 95.9833 15.0954 96.4023 14.7211C96.8302 14.3467 97.2714 14.0347 97.726 13.7851C98.1895 13.5355 98.6486 13.3484 99.1032 13.2236C99.5578 13.0988 99.9767 13.0364 100.36 13.0364C100.636 13.0364 100.908 13.1166 101.176 13.277C101.452 13.4375 101.702 13.6336 101.924 13.8654C102.147 14.0971 102.325 14.3422 102.459 14.6007C102.602 14.8503 102.673 15.0687 102.673 15.2559C102.673 15.559 102.544 15.8709 102.285 16.1918C102.036 16.5038 101.679 16.8247 101.216 17.1545C100.752 17.4843 100.195 17.8231 99.5444 18.1707C98.8937 18.5094 98.1761 18.8526 97.3917 19.2002C97.365 19.4142 97.3516 19.6236 97.3516 19.8287C97.3516 20.105 97.4095 20.2922 97.5254 20.3902C97.6502 20.4883 97.8775 20.5373 98.2073 20.5373C98.7956 20.5373 99.3483 20.4392 99.8653 20.2431C100.391 20.047 100.895 19.793 101.376 19.481C101.858 19.169 102.321 18.8125 102.767 18.4114C103.212 18.0102 103.654 17.6047 104.09 17.1946L104.746 17.8498ZM100.039 14.5071C99.8608 14.5071 99.6647 14.6052 99.4508 14.8013C99.2369 14.9885 99.0229 15.2381 98.809 15.5501C98.5951 15.862 98.3901 16.223 98.194 16.6331C97.9979 17.0342 97.8285 17.4531 97.6859 17.8899C98.0157 17.676 98.3366 17.4487 98.6486 17.208C98.9695 16.9673 99.2547 16.7178 99.5043 16.4593C99.7539 16.1918 99.9544 15.92 100.106 15.6436C100.257 15.3673 100.333 15.091 100.333 14.8147C100.333 14.7344 100.307 14.6631 100.253 14.6007C100.208 14.5383 100.137 14.5071 100.039 14.5071Z" fill="#111212"/>
</svg>
